<?xml version="1.0" encoding="utf-8"?>
<!-- Generator: Adobe Illustrator 24.0.2, SVG Export Plug-In . SVG Version: 6.00 Build 0)  -->
<svg version="1.1" id="Capa_1" xmlns="http://www.w3.org/2000/svg" xmlns:xlink="http://www.w3.org/1999/xlink" x="0px" y="0px"
	 viewBox="0 0 394.18 137.65" style="enable-background:new 0 0 394.18 137.65;" xml:space="preserve">
<style type="text/css">
	.st0{fill:#E04403;}
</style>
<g>
	<g>
		<g>
			<path class="st0" d="M35.06,104.75c-9.38,0-18.18-3.75-24.82-10.54C3.6,87.58,0,78.64,0,68.97c0-9.52,3.6-18.61,10.24-25.25
				c6.64-6.77,15.59-10.53,24.82-10.53c9.96,0,18.47,3.47,25.25,10.11c6.06,5.9,8.82,14.14,12.13,23.51l12.84,36.08H75.17
				l-7.65-19.63C61.04,97.11,49.2,104.75,35.06,104.75z M35.06,43C20.92,43,9.53,54.54,9.53,68.97s11.39,26.12,25.53,26.12
				c14.15,0,25.39-11.4,25.39-26.12C60.45,54.39,49.06,43,35.06,43z"/>
			<path class="st0" d="M147.75,74.88c0,18.19-12.26,29.87-27.99,29.87c-15.74,0-28.14-11.83-28.14-29.87V35.06h9.66v40.4
				c0,11.98,8.22,19.63,18.32,19.63c10.24,0,18.47-7.66,18.47-19.63v-40.4h9.67V74.88z"/>
			<path class="st0" d="M164.92,0h9.67v43.71c7.5-7.06,15.72-10.37,25.25-10.37c9.37,0,18.03,3.6,24.66,10.37
				c6.64,6.79,10.25,15.74,10.25,25.25c0,9.53-3.61,18.61-10.25,25.25c-6.63,6.78-15.42,10.54-24.66,10.54
				c-20.05,0-35.06-15.16-35.06-39.41c0-1.43,0-3.02,0.14-4.6V0z M199.84,95.09c14.15,0,25.53-11.55,25.53-25.98
				c0-14.43-11.38-26.11-25.53-26.11c-14.14,0-25.54,11.68-25.54,26.11C174.3,83.69,185.69,95.09,199.84,95.09z"/>
			<path class="st0" d="M278.16,104.75c-9.36,0-18.16-3.75-24.8-10.54c-6.62-6.64-10.24-15.58-10.24-25.25
				c0-9.52,3.62-18.61,10.24-25.25c6.64-6.77,15.58-10.53,24.8-10.53c9.97,0,18.49,3.47,25.27,10.11
				c6.07,5.9,8.81,14.14,12.12,23.51l12.84,36.08h-10.1l-7.65-19.63C304.16,97.11,292.31,104.75,278.16,104.75z M278.16,43
				c-14.12,0-25.52,11.54-25.52,25.97s11.4,26.12,25.52,26.12c14.15,0,25.41-11.4,25.41-26.12C303.57,54.39,292.17,43,278.16,43z"/>
			<path class="st0" d="M357.4,137.65c-14.01,0-23.81-4.46-32.62-15.43l7.65-6.06c7.23,9.23,13.86,12.83,24.25,12.83
				c18.03,0,27.56-10.39,27.56-30.29c0-0.73,0-1.44,0-2.17c-6.36,5.49-12.56,8.38-19.05,8.38c-6.64,0-14.42-3.03-19.33-7.5
				c-8.51-7.93-9.1-15.88-9.1-26.56V35.06h9.1V70.7c0,16.16,7.64,24.68,19.76,24.68c5.78,0,11.12-2.6,15.16-7.8
				c3.17-4.04,3.46-9.37,3.46-16.73V35.06h9.95v58.59C394.18,122.94,381.63,137.65,357.4,137.65z"/>
		</g>
		<path class="st0" d="M50.42,69.13c0,8.49-6.86,15.36-15.36,15.36c-8.48,0-15.35-6.87-15.35-15.36c0-8.48,6.87-15.35,15.35-15.35
			C43.56,53.79,50.42,60.66,50.42,69.13z"/>
	</g>
</g>
</svg>
